# Blender 4.3.2
# www.blender.org
o B4BC_66001
v 1.199999 2.442308 -1.800000
v 0.900000 1.062308 0.599999
v 0.900000 1.602308 -0.660000
v -1.200001 2.442307 -1.800000
v -0.900000 1.062307 0.599999
v -0.900000 1.962308 -0.420000
v -0.600000 1.542308 -0.600000
v -0.900000 1.602308 -0.660000
v 0.120000 1.902308 0.299999
v -0.120000 1.902308 0.299999
v -0.120000 2.202308 -0.780000
v 0.120000 2.202308 -0.780000
v 0.600000 1.542308 -0.600000
v 0.900000 1.962308 -0.420000
v 1.200000 1.542308 -0.600000
v 1.080000 1.422308 -0.420000
v 0.780000 1.422308 -0.420000
v -1.200000 1.542308 -0.600000
v -1.080000 1.422307 -0.420000
v -0.780000 1.422308 -0.420000
v 2.100000 0.942309 -3.000000
v 1.200000 1.542308 -0.600000
v 1.619999 1.242308 -1.800000
v 1.800000 1.242308 -1.800000
v -0.720000 1.482308 -0.600000
v 0.000000 1.662308 3.000000
v 0.720000 1.482308 -0.600000
v -2.100000 0.942307 -3.000000
v -1.800000 1.242307 -1.800000
v -1.620000 1.242307 -1.800000
v -0.600000 1.542308 -0.600000
v 1.200000 1.242308 -1.200001
v 0.600000 1.542308 -0.600000
v -1.200000 1.242308 -1.200001
v -1.200000 1.542308 -0.600000
v 0.000000 1.182308 0.480000
v 0.000000 1.902308 -1.200001
v -0.600000 1.542308 -0.600000
v -0.300000 1.602308 -0.660000
v 0.000000 1.842308 -0.960001
v 0.300000 1.602308 -0.660000
v 0.000000 1.662308 3.000000
s 1
f 3 1 2
f 6 4 5
f 8 7 5
f 9 11 10
f 9 12 11
f 14 13 2
f 17 15 16
f 20 18 19
f 18 20 7
f 19 7 20
f 7 19 18
f 16 13 17
f 15 17 13
f 13 16 15
f 21 13 22
f 21 23 24
f 25 7 26
f 12 9 13
f 9 10 26
f 13 27 26
f 30 28 29
f 31 28 18
f 33 32 15
f 1 14 2
f 34 7 35
f 4 8 5
f 21 32 13
f 26 7 36
f 11 37 7
f 34 18 28
f 15 32 21
f 36 13 26
f 10 11 7
f 12 37 11
f 34 28 7
f 7 6 5
f 8 4 7
f 1 13 14
f 13 3 2
f 7 4 6
f 1 3 13
f 38 26 10
f 12 13 37
f 37 40 39
f 41 7 39
f 37 39 7
f 40 13 41
f 37 13 40
f 41 13 7
f 40 41 39
f 36 7 13
f 9 42 13
